<svg version="1.0" xmlns="http://www.w3.org/2000/svg"
 width="600.000000pt" height="600.000000pt" viewBox="0 0 600.000000 600.000000"
 preserveAspectRatio="xMidYMid meet">

<g transform="translate(0.000000,600.000000) scale(0.100000,-0.100000)"
fill="#000000" stroke="none">
<path d="M869 5720 c-295 -73 -519 -300 -590 -596 -19 -80 -19 -126 -17 -2156
l3 -2073 28 -80 c46 -132 102 -220 202 -320 100 -100 188 -156 320 -202 l80
-28 978 -3 977 -3 0 976 0 975 -320 0 -320 0 0 320 0 320 319 0 320 0 3 473
c4 453 5 475 26 545 68 223 217 404 419 506 28 14 91 38 140 53 l88 27 468 4
467 3 0 -319 0 -319 -92 -6 c-51 -3 -192 -4 -313 -2 -121 1 -249 -2 -285 -7
-117 -17 -197 -77 -249 -188 l-26 -55 -3 -357 -3 -358 471 0 470 0 -5 -22 c-3
-13 -25 -147 -50 -298 -25 -151 -47 -285 -50 -297 l-5 -23 -413 -2 -412 -3 -3
-972 -2 -973 777 0 c736 0 782 1 859 20 147 35 262 98 372 204 112 107 186
238 223 392 19 80 19 126 17 2156 l-3 2073 -28 80 c-46 132 -102 220 -202 320
-100 100 -188 156 -320 202 l-80 28 -2080 2 c-2002 2 -2083 1 -2156 -17z
m4243 -328 c121 -49 231 -159 280 -280 l23 -57 3 -2029 c3 -2237 6 -2088 -59
-2203 -40 -69 -113 -142 -181 -182 -107 -61 -113 -61 -764 -61 -465 0 -593 3
-596 12 -3 7 -4 301 -3 653 l1 640 389 0 389 0 103 615 c56 338 104 627 107
643 l5 27 -493 0 -493 0 -7 114 c-4 63 -4 135 -1 160 l7 46 479 0 479 0 0 645
0 645 -599 0 c-372 0 -629 -4 -677 -11 -451 -62 -818 -388 -940 -834 -27 -98
-28 -107 -32 -432 l-4 -333 -318 0 c-295 0 -319 -1 -323 -17 -3 -10 -4 -299
-3 -643 l1 -625 255 -1 c140 0 285 -1 323 -2 l67 -2 0 -650 0 -651 -792 3
-793 3 -57 23 c-121 49 -231 159 -280 280 l-23 57 -3 2029 c-3 2237 -6 2088
59 2203 40 69 113 142 182 182 112 64 -37 60 2197 58 l2035 -2 57 -23z"/>
</g>
</svg>
